<svg viewBox="0 0 500 500" fill="none" xmlns="http://www.w3.org/2000/svg">
  <path fill="currentColor" d="m227.5 102.95c-6.6 1.04-15.15 2.83-19 3.98-3.85 1.15-9.36 2.99-12.25 4.08-2.89 1.09-8.96 3.85-13.5 6.12-4.54 2.28-10.95 5.96-14.25 8.18-3.3 2.22-9.15 6.6-13 9.73-3.85 3.12-10.04 8.9-13.75 12.82-3.71 3.93-9.16 10.4-12.1 14.39-2.94 3.99-7.13 10.4-9.3 14.25-2.18 3.85-5.59 10.82-7.57 15.5-1.99 4.68-4.54 11.65-5.67 15.5-1.12 3.85-2.72 10.6-3.55 15-0.83 4.4-1.4 8.14-1.28 8.31 0.12 0.17 5.49-0.51 11.94-1.5l11.72-1.81c1.72-7.75 3.16-12.93 4.31-16.5 1.14-3.57 3.72-10.1 5.73-14.5 2.01-4.4 5.61-10.93 7.99-14.5 2.39-3.57 6.39-8.97 8.91-12 2.51-3.03 6.83-7.71 9.59-10.4 2.77-2.7 7.28-6.69 10.03-8.88 2.75-2.19 7.25-5.39 10-7.12 2.75-1.73 7.7-4.55 11-6.26 3.3-1.71 9.82-4.45 14.5-6.09 4.68-1.65 12.32-3.84 17-4.87 6.55-1.45 12.4-1.87 25.5-1.83 13.86 0.05 18.66 0.46 26 2.22 4.95 1.19 11.7 3.11 15 4.28 3.3 1.16 9.6 3.91 14 6.12 4.4 2.2 11.15 6.1 15 8.66 3.85 2.56 11.77 9.38 17.61 15.16 6.75 6.69 12.72 13.78 16.42 19.51 3.19 4.95 7.36 12.37 9.26 16.5 1.89 4.12 4.71 11.55 6.27 16.5 1.55 4.95 3.52 13.72 4.37 19.5 0.85 5.78 1.55 13.65 1.55 17.5 0 3.85-0.7 11.5-1.55 17-0.86 5.5-2.65 13.6-3.99 18-1.34 4.4-5.11 13.4-8.39 20-3.28 6.6-8.34 15.15-11.25 19-2.92 3.85-8.23 9.93-11.8 13.52-3.57 3.58-7.96 7.74-9.75 9.25-1.79 1.5-6.74 5.02-11 7.81-4.26 2.8-10.9 6.58-14.75 8.42-3.85 1.84-10.37 4.45-14.5 5.81-4.12 1.37-11.32 3.3-16 4.29-6.08 1.3-12.78 1.81-23.5 1.80-10.5-0.01-17.4-0.53-23-1.75-4.4-0.96-10.93-2.65-14.5-3.76-3.57-1.1-10.1-3.7-14.5-5.77-4.4-2.07-12.05-6.37-17-9.55-5.84-3.76-12.69-9.53-19.51-16.43-5.78-5.85-12.73-14.02-15.46-18.14-2.72-4.13-6.81-11.32-9.07-16-2.27-4.68-5.1-11.65-6.3-15.5-1.19-3.85-2.74-9.25-3.45-12l-1.27-5c-17-2.47-22.27-2.92-22.67-2.59-0.41 0.32-0.05 4.19 0.78 8.59 0.84 4.4 2.6 11.37 3.92 15.5 1.32 4.12 3.11 9.41 3.97 11.75 0.86 2.34 3.13 7.4 5.06 11.25 1.93 3.85 5.06 9.36 6.97 12.25 1.91 2.89 4.9 7.27 6.64 9.75 1.75 2.48 6.15 7.82 9.78 11.89 3.64 4.06 10.88 10.83 16.11 15.04 5.23 4.21 13.55 10.06 18.5 12.98 4.95 2.93 12.6 6.81 17 8.63 4.4 1.82 10.02 4 12.5 4.84 2.48 0.84 8.32 2.42 13 3.5 4.68 1.09 14.13 2.48 21 3.11 9.27 0.84 15.47 0.84 24 0.01 6.32-0.61 15.32-2 20-3.08 4.68-1.08 11.43-2.91 15-4.06 3.57-1.16 10.77-4.14 16-6.62 5.23-2.49 14.23-7.67 20-11.52 7.06-4.7 14.28-10.79 22.06-18.61 7.66-7.69 13.78-14.99 18.12-21.61 3.61-5.5 7.92-12.7 9.58-16 1.66-3.3 4.37-9.6 6.02-14 1.64-4.4 3.33-8.9 3.75-10 0.41-1.1 0.85-2.68 0.97-3.5 0.12-0.82 0.92-4.2 1.77-7.5 0.85-3.3 1.81-9.04 2.14-12.75l0.59-6.75c8.82-0.5 8.89-0.45 13.18 5.78 2.37 3.45 4.77 6.28 5.32 6.27 0.55 0 5.5-1.59 11-3.53 5.5-1.93 19.67-7.04 31.5-11.35 12.81-4.67 21.62-8.41 21.8-9.25q0.3-1.42-6-3.62c-3.46-1.21-17.32-6.22-30.8-11.13-13.48-4.91-25.4-9.21-26.5-9.55-1.62-0.51-2.61 0.37-5.19 4.62-1.76 2.9-4.01 6.01-5 6.93-1 0.91-3.39 1.96-5.31 2.32l-3.5 0.66c-1.32-12.13-3-20.6-4.58-26.65-1.58-6.05-3.82-13.48-4.98-16.5-1.16-3.03-3.91-9.1-6.12-13.5-2.21-4.4-6.39-11.6-9.31-16-2.91-4.4-8.72-11.94-12.9-16.75-4.19-4.81-7.95-8.76-8.36-8.78-0.41-0.01-3.07-2.15-5.9-4.75-2.83-2.6-8.45-7.05-12.5-9.91-4.04-2.85-11.62-7.38-16.85-10.05-5.23-2.68-14.68-6.54-21-8.58-6.32-2.05-15.55-4.41-20.5-5.25-4.95-0.84-15.07-1.72-22.5-1.95-10.06-0.31-16.56 0.06-25.5 1.47zm81.91 88.75c-3.8 1.34-14.11 4.67-22.91 7.41-8.8 2.73-21.85 6.57-29 8.53-7.15 1.96-15.48 4.13-18.5 4.82-3.02 0.7-10.9 2.47-17.5 3.95-6.6 1.48-16.5 3.55-22 4.62-5.5 1.06-16.75 3.03-25 4.38-8.25 1.35-21.3 3.41-29 4.59-7.7 1.18-19.85 3.01-27 4.08-7.15 1.06-16.04 2.38-19.75 2.93-3.71 0.54-9.79 1.44-13.5 1.99-3.71 0.55-13.72 2.09-22.25 3.42-8.52 1.34-21.19 3.25-28.13 4.25-10.01 1.45-12.59 2.14-12.41 3.33 0.12 0.82 1.31 1.62 2.63 1.77 1.33 0.14 8.49 1.17 15.91 2.28 7.43 1.11 24.53 3.59 38 5.51 13.48 1.93 28.1 3.95 32.5 4.49 4.4 0.55 10.25 1.4 13 1.89 2.75 0.49 8.38 1.37 12.5 1.95 4.13 0.59 14.02 2 22 3.14 7.98 1.14 18.77 2.75 24 3.59l9.5 1.53c4.65-5.22 8.08-9.19 10.63-12.19 2.54-3 6.27-7.48 8.28-9.96 3.4-4.18 3.55-4.64 2.13-6.5-0.84-1.1-1.98-2.79-2.53-3.75-0.82-1.42-0.58-1.84 1.24-2.24 1.24-0.27 6.75-1.38 12.25-2.47 5.5-1.09 14.12-3.01 19.14-4.26 5.03-1.25 8.88-1.83 8.55-1.28-0.32 0.55-7.13 8.65-15.13 18-7.99 9.35-14.78 17.23-15.08 17.5-0.3 0.27-6.82 7.93-14.48 17-7.66 9.07-14.17 16.73-14.47 17-0.29 0.27-2.89 3.31-5.78 6.75-3.45 4.11-4.99 6.73-4.5 7.63 0.61 1.13 2.27 0.78 8.75-1.84 4.4-1.77 11.38-4.46 15.5-5.97 4.13-1.5 14.93-5.21 24-8.23 9.08-3.02 20.33-6.62 25-8.01 4.68-1.39 11.43-3.31 15-4.27 3.58-0.95 12.13-3.13 19-4.84 6.88-1.7 16.55-4 21.5-5.11 4.95-1.1 13.27-2.91 18.5-4.01 5.23-1.09 12.88-2.69 17-3.53 4.13-0.84 10.65-2.02 14.5-2.62 3.85-0.6 7.23-1.32 7.5-1.6 0.27-0.29 0.61-5.43 0.75-11.43l0.25-10.92c-3.87 0-9.84 0.94-15.75 2.08-5.91 1.14-17.27 3.38-25.25 4.96-7.98 1.59-17.87 3.61-22 4.48-4.12 0.87-15.37 3.58-25 6.03-9.62 2.45-20.65 5.38-24.5 6.5-6.52 1.91-6.9 1.93-5.52 0.25 0.82-0.99 5.09-6.07 9.5-11.3 4.41-5.22 9.2-10.85 10.65-12.5 1.44-1.65 7-8.18 12.35-14.5 5.35-6.32 11.82-13.94 14.37-16.93 2.56-2.98 5.1-5.91 5.65-6.5 0.55-0.6 3.24-3.78 5.99-7.08 2.74-3.29 5.56-6.55 6.25-7.24 0.69-0.69 1.31-1.67 1.36-2.19 0.06-0.52-0.32-1.13-0.84-1.37-0.51-0.23-4.05 0.67-7.85 2.01z"/>
</svg>
