<?xml version="1.0" encoding="UTF-8"?>
<svg version="1.1" xmlns="http://www.w3.org/2000/svg" width="784" height="875">
<path d="M0 0 C258.72 0 517.44 0 784 0 C784 288.75 784 577.5 784 875 C525.28 875 266.56 875 0 875 C0 586.25 0 297.5 0 0 Z " fill="#010101" transform="translate(0,0)"/>
<path d="M0 0 C1.62105636 0.27441079 3.24625186 0.52571337 4.875 0.75 C12.25640853 2.02441446 19.12867648 4.74090013 26.13085938 7.32324219 C28.36076687 8.13062249 30.61185276 8.85424889 32.875 9.5625 C37.11491179 10.9484673 41.10300231 12.80690521 45.12890625 14.71875 C48.11285968 16.09301907 48.11285968 16.09301907 51.74609375 17.34765625 C56.55794655 19.12393875 60.99374524 21.50354378 65.5 23.9375 C67.11415655 24.80157899 68.7287359 25.66486864 70.34375 26.52734375 C71.1171875 26.94097168 71.890625 27.35459961 72.6875 27.78076172 C76.09705114 29.57840724 79.54469129 31.29215819 83 33 C83 33.66 83 34.32 83 35 C84.175625 35.2784375 84.175625 35.2784375 85.375 35.5625 C90.50840066 37.59815888 94.55805945 40.75534801 99 44 C100.11069041 44.79087553 101.22272998 45.57985891 102.3359375 46.3671875 C105.33157518 48.48634853 108.31310124 50.62430788 111.2890625 52.77099609 C112.85281805 53.89427598 114.42594774 55.00447621 116 56.11328125 C124.35205445 62.13901619 131.66520928 69.08653434 139.09423828 76.19580078 C141.34032084 78.32218434 143.63040157 80.39432127 145.93286133 82.45922852 C163.77526648 98.50668134 177.23562448 118.22563859 189 139 C189.49016602 139.8569043 189.98033203 140.71380859 190.48535156 141.59667969 C198.085202 154.92005861 205.17182278 167.80346242 208.28515625 182.96484375 C209.15772958 186.6697043 210.48487665 190.02038673 212.03515625 193.48828125 C218.44675983 210.17921689 218.29521492 229.13587342 218.3125 246.75 C218.3176059 247.96745407 218.3176059 247.96745407 218.32281494 249.20950317 C218.36221639 265.63845625 216.71937841 281.72947469 214.0625 297.9375 C213.82756836 299.44666992 213.82756836 299.44666992 213.58789062 300.98632812 C212.59133432 307.16815349 211.26086151 313.18658671 209.69360352 319.24780273 C208.78938013 322.8357331 208.09645126 326.42132358 207.4375 330.0625 C207.31383057 330.73587402 207.19016113 331.40924805 207.06274414 332.10302734 C206.5047178 335.15057003 205.96525592 338.20098486 205.4375 341.25390625 C204.60846595 346.0143752 203.64824628 350.44308381 202 355 C200.20172896 360.46633528 198.77116687 365.9223229 197.625 371.5625 C196.52893045 376.87642882 195.15236973 382.00814291 193.5625 387.1875 C191.51427877 393.9147553 189.9067124 400.65159023 188.52856445 407.54589844 C187.64836067 411.94468674 186.70160136 416.31271028 185.640625 420.671875 C180.87488994 436.10011237 180.87488994 436.10011237 183.25 451.1640625 C185.17660818 453.50489144 187.21242647 455.43006974 189.66796875 457.20703125 C191.79874603 460.07514495 191.53002303 463.18774742 191.5 466.625 C191.49500488 467.37410645 191.49000977 468.12321289 191.48486328 468.89501953 C191.03828742 483.65050202 185.7223985 498.72738776 175.03759766 509.03173828 C169.2934141 514.3665976 163.28173352 519.3123154 157 524 C156.25234375 524.60457031 155.5046875 525.20914063 154.734375 525.83203125 C152.52790009 527.61447271 150.28876749 529.32488756 148 531 C147.4121875 531.43828125 146.824375 531.8765625 146.21875 532.328125 C141.69066789 535.14824631 137.11254138 535.40554961 131.875 535.5 C130.85297485 535.52791626 130.85297485 535.52791626 129.81030273 535.55639648 C124.76051157 535.493082 121.89176253 534.1388918 118 531 C115.88369656 528.31934897 115.09191827 526.46980452 114.4375 523.125 C115.06902077 519.61655127 115.5079225 519.38731149 118 517.125 C121.46185905 513.47446143 121.60749407 509.76366616 121.625 504.9375 C121.64046875 503.91003662 121.64046875 503.91003662 121.65625 502.86181641 C121.48038492 496.35951912 118.8242106 492.74129194 114.25 488.375 C104.93387446 481.13171239 93.6333758 478.81038012 82 480 C77.20952898 480.86945621 72.4776734 481.98278935 67.74609375 483.125 C64 484 64 484 62 484 C62 484.66 62 485.32 62 486 C61.32453125 486.25394531 60.6490625 486.50789063 59.953125 486.76953125 C59.06109375 487.11371094 58.1690625 487.45789063 57.25 487.8125 C56.36828125 488.14894531 55.4865625 488.48539063 54.578125 488.83203125 C52.06869674 489.96887829 50.18254368 491.3441136 48 493 C47.34 493 46.68 493 46 493 C46.0721875 493.66 46.144375 494.32 46.21875 495 C48.95655642 524.20326844 45.56030727 550.91067217 31.25 576.75 C22.41419921 592.8293542 23.95437395 612.46893633 23.61184692 630.43130493 C23.26116221 648.24162092 22.42076027 665.98119474 21.27050781 683.75537109 C20.83948525 690.45841444 20.45234983 697.1640499 20.06741333 703.86987305 C19.93840391 706.10930936 19.80701213 708.3485979 19.67553711 710.58789062 C19.25315519 717.87388977 18.914618 725.15409508 18.70947266 732.44995117 C17.3882217 777.2235566 17.3882217 777.2235566 11 790 C8.5949707 790.77783203 8.5949707 790.77783203 5.42578125 791.5078125 C3.71165039 791.90419922 3.71165039 791.90419922 1.96289062 792.30859375 C0.75826172 792.57800781 -0.44636719 792.84742188 -1.6875 793.125 C-2.87279297 793.40214844 -4.05808594 793.67929687 -5.27929688 793.96484375 C-10.64276869 795.18613907 -15.47496753 796.16434013 -21 796 C-23.67969148 785.52131764 -23.28951087 774.9073775 -23.265625 764.1796875 C-23.26774392 762.10718207 -23.2705161 760.03467722 -23.27389526 757.96217346 C-23.27949084 752.41519231 -23.27074009 746.86832672 -23.25754547 741.32136154 C-23.2499832 737.86732592 -23.24586335 734.4133012 -23.24261475 730.95925903 C-23.19784483 690.61373755 -22.5600628 650.31527018 -21 610 C-20.93845734 608.36798645 -20.93845734 608.36798645 -20.87567139 606.70300293 C-20.63660593 600.404448 -20.36706785 594.10821384 -20.0625 587.8125 C-20.03101868 587.10745331 -19.99953735 586.40240662 -19.96710205 585.67599487 C-18.88012986 562.25504129 -18.88012986 562.25504129 -14.50708008 557.31274414 C-10.79523706 555.06769028 -6.20265077 554.0292206 -2 553 C-4.52054855 550.29941227 -6.69271121 548.59662217 -10 547 C-10.33 546.34 -10.66 545.68 -11 545 C-16.48240609 542.80703757 -22.37720707 543.62358143 -27.76953125 545.515625 C-28.56593018 545.79180664 -29.3623291 546.06798828 -30.18286133 546.35253906 C-30.78251709 546.56620117 -31.38217285 546.77986328 -32 547 C-32.02987797 550.35414677 -32.04708326 553.70825808 -32.0625 557.0625 C-32.07087891 557.98611328 -32.07925781 558.90972656 -32.08789062 559.86132812 C-32.10610714 565.19876838 -31.91737365 570.46542956 -31.50219727 575.78735352 C-30.88508523 584.41994939 -30.85531063 593.02876179 -30.8671875 601.6796875 C-30.8660421 603.36311874 -30.86456379 605.04654978 -30.86277771 606.72998047 C-30.85979677 611.19144878 -30.86395296 615.65287862 -30.87082291 620.11434174 C-30.87502696 622.89281685 -30.87797176 625.67129115 -30.88070679 628.44976807 C-31.01000383 744.37828019 -31.01000383 744.37828019 -38.57421875 779.90087891 C-39.37199663 783.83396047 -39.87954792 787.81638719 -40.41015625 791.79296875 C-41.18551155 794.69413261 -41.68384733 796.02115112 -44 798 C-47.05294822 798.52186151 -50.03795862 798.42052244 -53.125 798.3125 C-54.37990234 798.29799805 -54.37990234 798.29799805 -55.66015625 798.28320312 C-61.83182803 798.16817197 -61.83182803 798.16817197 -63 797 C-63.66318354 793.71576579 -64.04970186 790.38177688 -64.5 787.0625 C-64.69529297 785.72155273 -64.69529297 785.72155273 -64.89453125 784.35351562 C-67.51365991 765.26562342 -67.15080798 745.98323568 -67.1343255 726.76264453 C-67.13174188 722.78553377 -67.13415753 718.80842497 -67.13571167 714.83131409 C-67.13752446 708.11629825 -67.13515917 701.40129345 -67.13037109 694.6862793 C-67.12560241 687.92357659 -67.12548861 681.16089599 -67.13037109 674.39819336 C-67.15962871 632.91996884 -66.93029595 591.46929343 -66 550 C-69.96 550 -73.92 550 -78 550 C-77.96970703 551.07024414 -77.93941406 552.14048828 -77.90820312 553.24316406 C-75.99093921 623.86391324 -75.06752268 694.97708278 -78.87225342 765.54162598 C-79.00099647 768.01917626 -79.11193453 770.4970222 -79.21923828 772.97558594 C-79.59001064 781.10866031 -80.19276689 789.03413755 -82 797 C-85.91665108 797.02904864 -89.8332744 797.04681517 -93.75 797.0625 C-94.86117188 797.07087891 -95.97234375 797.07925781 -97.1171875 797.08789062 C-98.18710937 797.09111328 -99.25703125 797.09433594 -100.359375 797.09765625 C-101.34389648 797.10289307 -102.32841797 797.10812988 -103.34277344 797.11352539 C-105.75511147 797.01046244 -107.73262359 796.82064523 -110 796 C-111.46305032 793.07389936 -111.3175296 790.3463371 -111.5 787.08203125 C-111.54024292 786.37074066 -111.58048584 785.65945007 -111.62194824 784.92660522 C-111.75357165 782.55550452 -111.87735281 780.18408107 -112 777.8125 C-112.06586304 776.57628403 -112.06586304 776.57628403 -112.13305664 775.31509399 C-112.83090755 762.12606019 -113.26166497 748.94246887 -113.55426025 735.73898315 C-113.81935372 723.87132175 -114.22231245 712.01862814 -114.7510376 700.15985107 C-115.86302192 675.17880296 -116.70345362 650.18941169 -117.52176666 625.19733429 C-117.62390718 622.09568508 -117.72768655 618.99409492 -117.83197021 615.89251709 C-119.26389445 573.20618517 -119.26389445 573.20618517 -119 552 C-122.33811004 553.30043679 -125.29798168 554.68344583 -128.3125 556.625 C-129.35857422 557.29402344 -129.35857422 557.29402344 -130.42578125 557.9765625 C-130.94527344 558.31429687 -131.46476563 558.65203125 -132 559 C-131.51656094 561.17547576 -130.96002301 563.08702644 -130.02709961 565.11791992 C-128.70035059 568.8408275 -128.30675584 572.51706206 -127.94140625 576.42578125 C-127.85854874 577.28931717 -127.77569122 578.15285309 -127.69032288 579.04255676 C-126.59976471 591.36718366 -126.33312882 603.7394782 -125.99504852 616.10283279 C-125.91651752 618.9475801 -125.83365104 621.79219624 -125.75107193 624.63682842 C-125.5434111 631.8044015 -125.34640009 638.97221995 -125.15651321 646.14028454 C-125.04741458 650.25348864 -124.93376118 654.36652982 -124.81591797 658.47949219 C-124.04243728 685.72756657 -123.87491049 712.97727513 -123.8192215 740.23481369 C-123.81254515 742.91934502 -123.80244444 745.6038438 -123.79144287 748.2883606 C-123.77471941 752.5457882 -123.76872207 756.80310719 -123.77067757 761.06056595 C-123.76992379 762.64153188 -123.76584277 764.22250035 -123.75814629 765.80344772 C-123.72092373 774.05714612 -123.85424417 781.97367911 -126 790 C-134.6770608 791.01232376 -140.0225602 788.0271649 -147 783 C-153.20760304 777.71422111 -156.94194776 773.55215138 -157.78125 765.28515625 C-157.89984375 764.14143555 -158.0184375 762.99771484 -158.140625 761.81933594 C-158.25921875 760.57958008 -158.3778125 759.33982422 -158.5 758.0625 C-158.62890625 756.7518457 -158.7578125 755.44119141 -158.890625 754.09082031 C-162.04885705 721.48177979 -163.34887414 688.7111053 -165 656 C-165.05305298 654.95225403 -165.10610596 653.90450806 -165.1607666 652.82501221 C-165.48860659 646.34198308 -165.81073136 639.85870145 -166.125 633.375 C-166.16608887 632.52942535 -166.20717773 631.68385071 -166.24951172 630.81265259 C-166.66572981 622.17100797 -167.03557173 613.53134651 -167.2734375 604.8828125 C-167.29375031 604.16290131 -167.31406311 603.44299011 -167.33499146 602.70126343 C-167.42693188 599.38727436 -167.50806285 596.07400352 -167.57080078 592.75927734 C-167.80931431 583.05109518 -169.01643669 574.64971621 -172.9375 565.75 C-175.95940628 558.62163545 -177.62934524 551.63227901 -179 544 C-179.185625 543.14019531 -179.37125 542.28039062 -179.5625 541.39453125 C-180.00147046 538.99195184 -180.1667843 536.75280981 -180.1875 534.3125 C-180.20167969 533.54550781 -180.21585938 532.77851562 -180.23046875 531.98828125 C-180 530 -180 530 -178 528 C-176.35008418 527.29289322 -174.68437744 526.62056011 -173 526 C-174.17610818 520.08492101 -174.17610818 520.08492101 -176.0625 514.375 C-178.23653057 508.86745589 -178.89535287 501.88866696 -178 496 C-175.9375 493.75 -175.9375 493.75 -174 492 C-173.52815051 489.50244832 -173.52815051 489.50244832 -175 487 C-180.41734252 482.01604488 -184.83470983 479.69201375 -192.34375 479.77734375 C-197.38202443 480.19966969 -202.15039967 481.62987638 -207 483 C-207.84691406 483.20496094 -208.69382812 483.40992188 -209.56640625 483.62109375 C-228.27548589 488.45602444 -243.99689148 504.29275203 -257 518 C-257.86119134 520.17346568 -257.86119134 520.17346568 -258 522 C-252.31014378 523.89919217 -247.03847428 524.40686558 -241.0625 524.625 C-240.18787109 524.66367187 -239.31324219 524.70234375 -238.41210938 524.7421875 C-236.27505369 524.8356107 -234.13755706 524.91885398 -232 525 C-232.77748993 530.801271 -235.57110937 533.41806853 -240 537 C-243.39409501 539.19793818 -246.1989553 540.04639621 -250.3046875 539.80859375 C-254.45937055 538.89948234 -257.08645478 537.39760204 -260.625 535.0625 C-267.98021053 530.24929216 -274.06983516 527.22564045 -283 529 C-286.12991724 530.78158291 -288.80966154 532.76994277 -291.58984375 535.0546875 C-296.88790087 539.33091513 -301.32336784 539.70451476 -308 539 C-311.74216409 537.40758975 -313.87672063 535.46429791 -316 532 C-316 531.34 -316 530.68 -316 530 C-316.66 530 -317.32 530 -318 530 C-319.2265625 528.19921875 -319.2265625 528.19921875 -320.625 525.6875 C-322.8988431 521.73614029 -325.3563589 518.120928 -328.125 514.5 C-334.06339186 506.37737205 -336.8567703 499.23447747 -336.60546875 489.05078125 C-335.74938232 484.73721026 -333.64751107 482.68440738 -330.57421875 479.6796875 C-328.7611232 478.02061405 -328.7611232 478.02061405 -328.3125 475.1875 C-328.95769953 472.19612036 -329.88510874 469.654064 -331 466.8125 C-333.64021331 459.91599976 -334.18733804 453.62797734 -331.875 446.5625 C-326.86670658 439.71783233 -318.69058688 437.78412938 -311 435 C-311.46800621 431.09813427 -311.81422577 428.6157588 -314.625 425.8125 C-317.16985338 423.05157417 -319.16729693 420.26775894 -321.125 417.0625 C-324.12865988 412.2007002 -327.45739291 407.70936746 -330.9375 403.1875 C-343.44392706 386.81290541 -350.56660232 370.00498406 -354.44482422 349.86547852 C-355.2457885 345.71443721 -356.0739955 341.58465472 -357.07421875 337.4765625 C-359.20542377 328.71101157 -360.53226876 320.17520346 -361.20703125 311.17651367 C-361.62851865 305.69579102 -362.21229373 300.28388565 -363.0078125 294.84375 C-365.36488665 278.44145124 -366.40815052 262.32952129 -366.4375 245.75 C-366.44340149 244.81985077 -366.44930298 243.88970154 -366.4553833 242.93136597 C-366.52863724 225.94565607 -364.79980088 209.38670351 -360.67578125 192.890625 C-359.99893773 189.99545618 -359.5458885 187.12978598 -359.125 184.1875 C-358.01214047 177.17648499 -355.86948628 170.554658 -353.6171875 163.84082031 C-353.0766294 162.22855447 -352.55256249 160.61077871 -352.03125 158.9921875 C-343.76874983 134.56082923 -324.81029509 112.50968142 -305.41455078 95.92333984 C-300.58762659 91.70793708 -296.09988882 87.18964749 -291.6015625 82.62890625 C-289.80482583 80.81952408 -288.00794642 79.01028365 -286.2109375 77.20117188 C-283.41597423 74.38143752 -280.62264822 71.56012006 -277.83203125 68.73608398 C-275.11388716 65.98750934 -272.38936821 63.24537757 -269.6640625 60.50390625 C-268.84394684 59.67033096 -268.02383118 58.83675568 -267.17886353 57.97792053 C-261.76355272 52.5395736 -256.082975 47.67529109 -250 43 C-249.27436356 42.43426773 -248.54872711 41.86853546 -247.80110168 41.28565979 C-237.50250621 33.26218673 -227.1771001 25.91767504 -215 21 C-213.7875997 20.3829263 -212.57954877 19.75726315 -211.375 19.125 C-201.48535741 14.14228735 -190.86008109 10.8418669 -180.27636719 7.68115234 C-178.69223333 7.20713546 -177.10965514 6.72790133 -175.52832031 6.24462891 C-172.89742335 5.44242913 -170.26194116 4.65708172 -167.625 3.875 C-166.83673828 3.63338135 -166.04847656 3.3917627 -165.23632812 3.14282227 C-116.60202313 -11.02924526 -48.35672967 -14.83024213 0 0 Z " fill="#FDFDFD" transform="translate(468,40)"/>
<path d="M0 0 C4.52476682 3.85935993 4.61606948 9.19092402 5.125 14.8125 C6.27480946 36.13074687 3.28818905 54.82449481 -3.875 74.8125 C-4.29361493 76.29111647 -4.7105479 77.7702113 -5.125 79.25 C-10.92625698 96.45822294 -22.70144475 110.28601532 -38.5625 118.9375 C-50.4055819 124.46899933 -63.1476956 127.21185851 -75.875 129.8125 C-77.63282657 130.17962013 -79.39063873 130.54680926 -81.1484375 130.9140625 C-82.91123667 131.2771196 -84.67425329 131.63912272 -86.4375 132 C-87.24598389 132.16701416 -88.05446777 132.33402832 -88.88745117 132.50610352 C-92.88871974 133.30817355 -96.84091936 133.950323 -100.90234375 134.36328125 C-104.63804391 134.36781814 -104.63804391 134.36781814 -105.875 135.8125 C-134.02628917 140.42790064 -160.77298318 138.61673431 -187.45727539 128.69628906 C-190.15160907 127.71138672 -192.87548657 126.87902217 -195.625 126.0625 C-200.60497445 124.41552806 -205.17950485 122.3059065 -209.8125 119.875 C-210.43930664 119.55112305 -211.06611328 119.22724609 -211.71191406 118.89355469 C-215.74166789 116.71068104 -219.00291141 114.40401587 -221.875 110.8125 C-221.890625 108.65234375 -221.890625 108.65234375 -220.875 106.8125 C-216.05578499 102.27756452 -209.17496926 100.29947142 -203.1015625 98.05859375 C-199.41986158 96.6367262 -195.97183566 94.9412236 -192.46875 93.1328125 C-185.80061749 89.73849204 -179.0022862 86.57789696 -172 83.9375 C-166.34296987 81.73549642 -161.09776722 78.8175589 -155.78125 75.91015625 C-152.89464506 74.33656739 -149.9702523 72.86368582 -147.01953125 71.4140625 C-134.8008849 65.3372419 -123.19405723 58.15789862 -112.53515625 49.64453125 C-99.42902614 39.32160023 -85.3353755 30.11100045 -70.875 21.8125 C-69.98683594 21.27109375 -69.09867188 20.7296875 -68.18359375 20.171875 C-65.78391866 18.75886835 -63.32044671 17.68863312 -60.75 16.625 C-58.80804927 15.78348802 -56.9429969 14.84557905 -55.0625 13.875 C-41.35945971 6.97137704 -15.07227896 -6.22550653 0 0 Z " fill="#020202" transform="translate(639.875,309.1875)"/>
<path d="M0 0 C8.2582078 2.29739615 16.18274096 5.39377157 23.73242188 9.45898438 C25.84431956 10.61976399 25.84431956 10.61976399 28.88476562 11.54101562 C31.73820095 12.49216073 34.13863542 13.7993636 36.69335938 15.38085938 C38.85616941 16.61152552 38.85616941 16.61152552 41.91992188 17.82226562 C46.04981103 19.56337757 49.85059411 21.75106423 53.69726562 24.04101562 C54.43275635 24.47647705 55.16824707 24.91193848 55.92602539 25.3605957 C65.93178007 31.34214516 75.52303859 37.9171641 85.04492188 44.63476562 C93.52298842 50.52820805 102.15943072 56.20006402 110.89648438 61.70117188 C113.54297169 63.38060246 116.16449505 65.09527054 118.78588867 66.81347656 C128.10715395 72.892618 137.61529274 78.57953662 148.08789062 82.45898438 C152.0187085 83.99482789 155.84995379 85.74571852 159.69726562 87.47851562 C160.46989746 87.8263208 161.2425293 88.17412598 162.03857422 88.5324707 C165.31796142 90.01068191 168.59642833 91.49091234 171.8737793 92.97363281 C176.00222014 94.83620165 180.13552104 96.67816625 184.30664062 98.44335938 C185.01876709 98.74653076 185.73089355 99.04970215 186.46459961 99.36206055 C187.77614306 99.91770907 189.09055178 100.46667006 190.40844727 101.00708008 C195.01850872 102.96574936 198.71994296 105.48406527 202.69726562 108.47851562 C202.63476562 110.66992188 202.63476562 110.66992188 201.69726562 113.47851562 C199.37117519 115.38966545 197.25710117 116.88717922 194.69726562 118.41601562 C193.98320557 118.85131592 193.26914551 119.28661621 192.53344727 119.73510742 C185.58735437 123.81155261 178.39565854 126.4534871 170.73046875 128.83154297 C168.80299586 129.44487188 166.89745473 130.12591596 164.99414062 130.81054688 C128.55618963 143.86353581 91.43789143 138.03094575 54.41772461 130.03686523 C51.61951561 129.46255814 48.81469086 128.98066715 45.99804688 128.50585938 C41.32289584 127.66854374 37.04411505 126.41243737 32.63476562 124.66601562 C31.95140137 124.40030762 31.26803711 124.13459961 30.56396484 123.86083984 C14.95907658 117.6978126 -0.48583319 107.93330499 -8.30273438 92.47851562 C-10.28411498 87.52675183 -11.95813669 82.46939821 -13.63476562 77.40820312 C-14.93942075 73.47409729 -16.43527067 69.67131285 -18.05273438 65.85351562 C-25.34024947 46.90116614 -26.47138653 21.87296108 -20.30273438 2.47851562 C-16.59916428 -3.36731561 -5.92901177 -1.34270241 0 0 Z " fill="#010101" transform="translate(168.302734375,308.521484375)"/>
<path d="M0 0 C0.66 0 1.32 0 2 0 C3.14744017 5.51645085 3.1784456 10.90755257 3.203125 16.515625 C3.20882507 17.52663269 3.21452515 18.53764038 3.22039795 19.57928467 C3.22982037 21.71414146 3.23637093 23.84901262 3.24023438 25.98388672 C3.24992584 29.22519732 3.28097023 32.46586958 3.3125 35.70703125 C3.31903251 37.78905877 3.32428201 39.87109078 3.328125 41.953125 C3.3404718 42.91075745 3.3528186 43.86838989 3.36553955 44.8550415 C3.3325793 54.96852952 0.63128384 62.86479373 -5 71.1875 C-9.95672484 78.64445516 -13.268736 85.25083324 -14.125 94.25 C-14.89986737 101.69960212 -14.89986737 101.69960212 -16 105 C-24.33565721 102.21671412 -28.11611673 94.06332825 -32.3125 86.8125 C-32.64999268 86.23081055 -32.98748535 85.64912109 -33.33520508 85.04980469 C-37.46399161 77.70463604 -39.80675297 70.39786855 -38 62 C-36.24480541 59.25460398 -34.32472888 56.82462157 -32.20361328 54.35595703 C-24.98032962 45.75729139 -20.72712295 34.83775769 -16.875 24.375 C-14.87526051 19.1539607 -11.56062059 15.24905659 -8 11 C-6.70151641 9.35953954 -5.40964999 7.713816 -4.125 6.0625 C-3.26261719 4.96615234 -3.26261719 4.96615234 -2.3828125 3.84765625 C-0.94871038 2.04565922 -0.94871038 2.04565922 0 0 Z " fill="#050505" transform="translate(387,436)"/>
<path d="M0 0 C7.60704101 1.72932213 13.61567572 7.72683162 18 14 C19.48849949 16.97699897 20.65391017 19.87627623 21.6328125 23.0546875 C24.35407741 31.84406038 28.62971167 39.30996978 34.1875 46.625 C38.54865261 52.50670774 41.41565934 57.84404019 41 65.3125 C39.52868622 74.17103504 35.25822146 81.94942681 30.5 89.4375 C30.13261719 90.01653076 29.76523437 90.59556152 29.38671875 91.19213867 C26.94927162 94.89406533 24.30924098 98.04926013 21 101 C20.34 101 19.68 101 19 101 C17.39715847 94.47109218 15.96567989 88.05772005 15.1875 81.375 C14.03126906 73.51638974 10.46472657 67.50974029 5.93798828 61.0637207 C-1.70106901 49.06791723 -0.92501653 37.40260206 -0.5 23.5625 C-0.45978785 21.27024507 -0.42330086 18.97792162 -0.390625 16.68554688 C-0.30332547 11.12217909 -0.17017514 5.56141802 0 0 Z " fill="#040404" transform="translate(400,443)"/>
<path d="M0 0 C0 3 0 3 -1.62060547 4.99291992 C-2.73266357 6.10050659 -2.73266357 6.10050659 -3.8671875 7.23046875 C-4.67027344 8.03291016 -5.47335938 8.83535156 -6.30078125 9.66210938 C-7.15027344 10.49548828 -7.99976563 11.32886719 -8.875 12.1875 C-9.71675781 13.03248047 -10.55851562 13.87746094 -11.42578125 14.74804688 C-17.73324001 21 -17.73324001 21 -20 21 C-20.226875 21.556875 -20.45375 22.11375 -20.6875 22.6875 C-22.35896766 25.63246684 -24.55276352 27.68156544 -27 30 C-27.66 29.67 -28.32 29.34 -29 29 C-21.25379791 20.46937238 -13.56476834 12.0834417 -4.796875 4.578125 C-3.12659942 3.11118731 -1.55211328 1.59043707 0 0 Z " fill="#DCDCDC" transform="translate(170,129)"/>
<path d="M0 0 C0.33 0.66 0.66 1.32 1 2 C-0.09346881 3.34212062 -1.2001575 4.67347975 -2.3125 6 C-3.23482422 7.11375 -3.23482422 7.11375 -4.17578125 8.25 C-6 10 -6 10 -9 10 C-6.03 6.7 -3.06 3.4 0 0 Z " fill="#C2C2C2" transform="translate(150,148)"/>
</svg>
