<svg width="324" height="42" viewBox="0 0 324 42" fill="none" xmlns="http://www.w3.org/2000/svg">
<path d="M0 6h6v6h-6zM6 6h6v6h-6zM12 6h6v6h-6zM18 6h6v6h-6zM0 12h6v6h-6zM0 18h6v6h-6zM0 24h6v6h-6zM0 30h6v6h-6zM6 30h6v6h-6zM12 30h6v6h-6zM18 30h6v6h-6zM30 6h6v6h-6zM48 6h6v6h-6zM30 12h6v6h-6zM48 12h6v6h-6zM36 18h6v6h-6zM42 18h6v6h-6zM36 24h6v6h-6zM36 30h6v6h-6zM60 6h6v6h-6zM66 6h6v6h-6zM72 6h6v6h-6zM60 12h6v6h-6zM78 12h6v6h-6zM60 18h6v6h-6zM66 18h6v6h-6zM72 18h6v6h-6zM60 24h6v6h-6zM78 24h6v6h-6zM60 30h6v6h-6zM66 30h6v6h-6zM72 30h6v6h-6zM90 6h6v6h-6zM96 6h6v6h-6zM102 6h6v6h-6zM108 6h6v6h-6zM90 12h6v6h-6zM90 18h6v6h-6zM96 18h6v6h-6zM102 18h6v6h-6zM90 24h6v6h-6zM90 30h6v6h-6zM96 30h6v6h-6zM102 30h6v6h-6zM108 30h6v6h-6zM120 6h6v6h-6zM126 6h6v6h-6zM132 6h6v6h-6zM120 12h6v6h-6zM138 12h6v6h-6zM120 18h6v6h-6zM126 18h6v6h-6zM132 18h6v6h-6zM120 24h6v6h-6zM132 24h6v6h-6zM120 30h6v6h-6zM138 30h6v6h-6zM156 6h6v6h-6zM162 6h6v6h-6zM168 6h6v6h-6zM150 12h6v6h-6zM156 18h6v6h-6zM162 18h6v6h-6zM168 24h6v6h-6zM150 30h6v6h-6zM156 30h6v6h-6zM162 30h6v6h-6z" fill="#EF4444"/>
<path d="M180 6h6v6h-6zM186 6h6v6h-6zM192 6h6v6h-6zM198 6h6v6h-6zM186 12h6v6h-6zM192 12h6v6h-6zM186 18h6v6h-6zM192 18h6v6h-6zM186 24h6v6h-6zM192 24h6v6h-6zM186 30h6v6h-6zM192 30h6v6h-6zM210 6h6v6h-6zM216 6h6v6h-6zM222 6h6v6h-6zM210 12h6v6h-6zM228 12h6v6h-6zM210 18h6v6h-6zM216 18h6v6h-6zM222 18h6v6h-6zM210 24h6v6h-6zM222 24h6v6h-6zM210 30h6v6h-6zM228 30h6v6h-6zM240 6h6v6h-6zM246 6h6v6h-6zM252 6h6v6h-6zM258 6h6v6h-6zM246 12h6v6h-6zM252 12h6v6h-6zM246 18h6v6h-6zM252 18h6v6h-6zM246 24h6v6h-6zM252 24h6v6h-6zM240 30h6v6h-6zM246 30h6v6h-6zM252 30h6v6h-6zM258 30h6v6h-6zM270 6h6v6h-6zM288 6h6v6h-6zM270 12h6v6h-6zM282 12h6v6h-6zM270 18h6v6h-6zM276 18h6v6h-6zM270 24h6v6h-6zM282 24h6v6h-6zM270 30h6v6h-6zM288 30h6v6h-6zM300 6h6v6h-6zM306 6h6v6h-6zM312 6h6v6h-6zM318 6h6v6h-6zM300 12h6v6h-6zM300 18h6v6h-6zM306 18h6v6h-6zM312 18h6v6h-6zM300 24h6v6h-6zM300 30h6v6h-6zM306 30h6v6h-6zM312 30h6v6h-6zM318 30h6v6h-6z" fill="#FCA5A5"/>
</svg>
