<svg xmlns="http://www.w3.org/2000/svg" viewBox="0 0 512 512" fill="currentColor">
<g transform="translate(0,512) scale(0.1,-0.1)">
<path d="M2395 4070 c-174 -21 -369 -78 -513 -152 -158 -80 -258 -154 -392 -288 -172 -172 -276 -331 -355 -545 -41 -111 -89 -305 -77 -317 6 -6 182 15 216 25 4 2 19 44 32 94 106 409 420 752 819 896 142 51 257 69 430 69 170 1 249 -11 400 -58 307 -96 591 -337 750 -637 155 -290 188 -664 88 -980 -125 -398 -454 -726 -852 -851 -377 -118 -780 -58 -1111 167 -167 114 -368 350 -449 528 -36 81 -79 206 -87 259 -4 22 -12 44 -18 47 -19 12 -217 40 -222 32 -7 -13 36 -197 68 -288 112 -318 313 -578 593 -766 600 -402 1373 -333 1894 170 57 55 132 138 167 185 132 177 247 447 281 664 9 55 19 104 22 107 3 4 25 10 48 14 l42 7 43 -66 c24 -36 48 -66 53 -66 9 0 655 230 664 237 9 6 -11 14 -229 93 -124 45 -273 99 -333 120 l-107 39 -46 -68 c-35 -54 -52 -70 -76 -75 -64 -13 -65 -12 -72 70 -9 99 -55 276 -101 392 -133 331 -395 618 -716 782 -120 61 -301 123 -424 145 -108 19 -333 27 -430 15z"/>
<path d="M3135 3140 c-510 -177 -1046 -295 -1895 -419 -80 -12 -174 -26 -210 -32 -150 -23 -458 -69 -638 -95 -106 -15 -187 -31 -180 -35 7 -4 49 -12 93 -18 132 -17 1317 -189 1499 -216 93 -14 172 -22 176 -18 96 112 210 254 210 260 0 4 -9 19 -20 33 -11 14 -20 30 -20 36 0 6 61 23 135 38 74 16 174 38 223 51 48 13 89 21 91 19 3 -2 -5 -14 -16 -27 -18 -20 -432 -504 -641 -750 -46 -54 -82 -100 -79 -103 2 -2 76 23 163 57 374 143 730 248 1194 353 155 35 418 88 497 101 23 4 46 12 52 19 14 16 27 201 15 209 -29 17 -744 -132 -1073 -224 -79 -22 -146 -38 -148 -35 -3 3 82 108 190 233 313 365 492 577 500 591 11 16 9 16 -118 -28z"/>
</g>
</svg>
